<?xml version="1.0" encoding="UTF-8"?> <svg xmlns="http://www.w3.org/2000/svg" id="Layer_2" viewBox="0 0 153.63 54.31"><defs><style>.cls-1{fill:#80976d;}.cls-1,.cls-2,.cls-3,.cls-4{stroke-width:0px;}.cls-2{fill:#73b4ba;}.cls-3{fill:#003861;}.cls-4{fill:#002a4f;}</style></defs><g id="Layer_1-2"><path class="cls-3" d="m48.54,28.32v5.96h-3.15v-16.93h5.51c1.13,0,2.11.13,2.94.4.83.27,1.51.64,2.05,1.11.54.48.94,1.05,1.19,1.71.26.66.39,1.39.39,2.18s-.14,1.57-.41,2.25c-.27.68-.68,1.27-1.23,1.76-.55.49-1.23.87-2.05,1.15-.82.27-1.78.41-2.88.41h-2.36Zm0-2.46h2.36c.58,0,1.08-.07,1.51-.22s.78-.35,1.07-.62c.28-.27.49-.6.63-.98s.21-.82.21-1.29-.07-.86-.21-1.23-.35-.68-.63-.94c-.28-.26-.64-.45-1.07-.59s-.93-.21-1.51-.21h-2.36v6.08Z"></path><path class="cls-3" d="m64.69,27.67v6.61h-3.15v-16.93h5.16c1.15,0,2.14.12,2.97.36.82.24,1.5.57,2.03,1,.53.43.91.94,1.16,1.54.25.6.37,1.25.37,1.97,0,.57-.08,1.11-.25,1.62-.17.51-.41.97-.73,1.38-.32.41-.71.78-1.17,1.09-.46.31-.99.56-1.59.75.4.23.74.55,1.03.97l4.24,6.25h-2.83c-.27,0-.51-.05-.7-.16-.19-.11-.35-.27-.49-.47l-3.56-5.42c-.13-.2-.28-.35-.44-.43-.16-.09-.4-.13-.71-.13h-1.35Zm0-2.26h1.97c.59,0,1.11-.07,1.55-.22.44-.15.8-.35,1.09-.61.29-.26.5-.57.64-.93.14-.36.21-.75.21-1.18,0-.86-.28-1.52-.85-1.98-.57-.46-1.43-.69-2.59-.69h-2.01v5.62Z"></path><path class="cls-3" d="m88.97,17.35v2.51h-7.5v4.69h5.91v2.42h-5.91v4.79h7.5v2.52h-10.68v-16.93h10.68Z"></path><path class="cls-3" d="m102.09,28.03c.11.27.22.54.33.81.11-.28.22-.56.34-.83.12-.27.24-.53.37-.78l5.01-9.38c.06-.12.13-.21.19-.28.07-.07.14-.12.22-.15.08-.03.17-.05.28-.06.1,0,.22-.01.36-.01h2.38v16.93h-2.77v-10.93c0-.2,0-.43.02-.67.01-.24.03-.49.05-.74l-5.11,9.6c-.12.22-.27.39-.46.51-.19.12-.41.18-.66.18h-.43c-.25,0-.47-.06-.66-.18-.19-.12-.34-.29-.46-.51l-5.19-9.63c.03.26.05.51.06.75.01.25.02.47.02.69v10.93h-2.77v-16.93h2.38c.14,0,.26,0,.36.01s.19.03.28.06c.08.03.16.08.23.15.07.07.14.16.2.28l5.06,9.4c.13.25.26.51.37.78Z"></path><path class="cls-3" d="m120.06,34.28h-3.16v-16.93h3.16v16.93Z"></path><path class="cls-3" d="m136.06,17.35v2.51h-7.5v4.69h5.91v2.42h-5.91v4.79h7.5v2.52h-10.68v-16.93h10.68Z"></path><path class="cls-3" d="m143.56,27.67v6.61h-3.15v-16.93h5.16c1.15,0,2.14.12,2.97.36.82.24,1.5.57,2.03,1,.53.43.91.94,1.16,1.54.25.6.37,1.25.37,1.97,0,.57-.08,1.11-.25,1.62-.17.51-.41.97-.73,1.38-.32.41-.71.78-1.17,1.09-.46.31-.99.56-1.59.75.4.23.74.55,1.03.97l4.24,6.25h-2.83c-.27,0-.51-.05-.7-.16-.19-.11-.35-.27-.49-.47l-3.56-5.42c-.13-.2-.28-.35-.44-.43-.16-.09-.4-.13-.71-.13h-1.35Zm0-2.26h1.97c.59,0,1.11-.07,1.55-.22.44-.15.8-.35,1.09-.61.29-.26.5-.57.64-.93.14-.36.21-.75.21-1.18,0-.86-.28-1.52-.85-1.98-.57-.46-1.43-.69-2.59-.69h-2.01v5.62Z"></path><path class="cls-3" d="m.45,43.91h1.61c.17,0,.31.04.42.12.11.08.19.18.22.32l1.75,6.15c.04.15.08.32.12.49s.07.37.1.57c.04-.2.08-.39.12-.57s.09-.34.15-.49l2.02-6.15c.04-.11.11-.21.22-.3.11-.09.25-.14.41-.14h.56c.17,0,.3.04.41.12.11.08.19.18.23.32l2.01,6.15c.1.3.19.64.27,1.01.03-.19.07-.36.1-.53.04-.17.07-.33.11-.48l1.75-6.15c.03-.12.11-.22.22-.31.11-.09.25-.13.41-.13h1.5l-3.19,10.29h-1.73l-2.25-7.03c-.03-.09-.06-.19-.09-.29-.03-.1-.06-.22-.09-.33-.03.12-.06.23-.09.33-.03.1-.06.2-.09.29l-2.27,7.03h-1.73L.45,43.91Z"></path><path class="cls-3" d="m19.37,54.2h-1.92v-10.29h1.92v10.29Z"></path><path class="cls-3" d="m23.83,43.92c.06,0,.11.02.15.04.05.02.09.05.13.09.04.04.09.09.14.16l5.4,6.88c-.02-.17-.03-.33-.04-.49,0-.16-.01-.31-.01-.44v-6.25h1.69v10.29h-.99c-.15,0-.28-.02-.38-.07s-.2-.13-.29-.26l-5.38-6.85c.01.15.02.3.03.45,0,.15.01.29.01.41v6.32h-1.69v-10.29h1c.09,0,.16,0,.21.01Z"></path><path class="cls-3" d="m43.42,49.05c0,.75-.13,1.45-.38,2.08-.25.63-.6,1.17-1.06,1.63-.46.46-1,.81-1.64,1.06-.64.25-1.35.38-2.13.38h-3.93v-10.29h3.93c.78,0,1.49.13,2.13.38.64.25,1.19.61,1.64,1.06.46.45.81.99,1.06,1.63.25.63.38,1.32.38,2.08Zm-1.96,0c0-.56-.08-1.07-.23-1.52-.15-.45-.37-.83-.65-1.14-.28-.31-.62-.55-1.02-.72-.4-.17-.85-.25-1.36-.25h-2v7.24h2c.5,0,.95-.08,1.36-.25s.74-.4,1.02-.72c.28-.31.5-.69.65-1.14.15-.45.23-.95.23-1.52Z"></path><path class="cls-3" d="m55.71,49.05c0,.75-.13,1.45-.38,2.09-.25.64-.6,1.2-1.06,1.67s-1,.84-1.64,1.1c-.64.26-1.35.4-2.13.4s-1.49-.13-2.13-.4c-.64-.26-1.19-.63-1.65-1.1-.46-.47-.81-1.03-1.06-1.67-.25-.64-.38-1.34-.38-2.09s.13-1.45.38-2.1.61-1.2,1.06-1.67c.46-.47,1.01-.84,1.65-1.1.64-.26,1.35-.4,2.13-.4s1.49.13,2.13.4,1.19.63,1.64,1.1c.46.47.81,1.02,1.06,1.66s.38,1.34.38,2.1Zm-1.96,0c0-.56-.08-1.07-.22-1.52-.15-.45-.36-.83-.64-1.14-.28-.31-.62-.55-1.02-.72-.4-.17-.85-.25-1.35-.25s-.96.08-1.36.25c-.4.17-.75.41-1.03.72-.28.31-.5.69-.65,1.14-.15.45-.23.95-.23,1.52s.08,1.07.23,1.52c.15.45.37.83.65,1.14.28.31.63.55,1.03.72s.86.25,1.36.25.95-.08,1.35-.25.74-.4,1.02-.72c.28-.31.49-.69.64-1.14.15-.45.22-.95.22-1.52Z"></path><path class="cls-3" d="m57.19,43.91h1.61c.17,0,.31.04.42.12.11.08.19.18.22.32l1.75,6.15c.04.15.08.32.12.49s.07.37.1.57c.04-.2.08-.39.12-.57s.09-.34.15-.49l2.02-6.15c.04-.11.11-.21.22-.3.11-.09.25-.14.41-.14h.56c.17,0,.3.04.41.12.11.08.19.18.23.32l2.01,6.15c.1.3.19.64.27,1.01.03-.19.07-.36.1-.53.04-.17.07-.33.11-.48l1.75-6.15c.03-.12.11-.22.22-.31.11-.09.25-.13.41-.13h1.5l-3.19,10.29h-1.73l-2.25-7.03c-.03-.09-.06-.19-.09-.29-.03-.1-.06-.22-.09-.33-.03.12-.06.23-.09.33-.03.1-.06.2-.09.29l-2.27,7.03h-1.73l-3.19-10.29Z"></path><path class="cls-3" d="m79.47,45.78c-.05.1-.11.18-.18.22-.07.04-.15.06-.25.06s-.2-.04-.32-.11c-.12-.07-.26-.16-.42-.25-.16-.09-.35-.17-.57-.25s-.47-.11-.76-.11c-.27,0-.5.03-.69.1-.2.06-.36.15-.5.27-.14.11-.24.25-.3.41-.07.16-.1.33-.1.52,0,.24.07.44.2.6.14.16.31.3.54.41.22.11.48.22.76.31s.57.19.87.29c.3.1.59.22.87.36.28.14.54.31.76.51s.4.46.54.76c.14.3.2.66.2,1.09,0,.46-.08.9-.24,1.3-.16.41-.39.76-.7,1.06-.31.3-.68.54-1.12.71-.44.17-.95.26-1.51.26-.33,0-.65-.03-.97-.1s-.62-.16-.91-.27c-.29-.12-.56-.26-.82-.43-.25-.17-.48-.35-.68-.55l.55-.92c.05-.07.12-.12.19-.17.07-.05.16-.07.25-.07.12,0,.25.05.38.15.14.1.3.21.49.32s.41.23.66.32c.25.1.56.15.91.15.55,0,.97-.13,1.27-.39.3-.26.45-.63.45-1.11,0-.27-.07-.49-.2-.66-.14-.17-.31-.31-.54-.43s-.48-.21-.76-.3-.57-.17-.87-.26c-.29-.09-.58-.21-.87-.34s-.54-.31-.76-.52-.4-.48-.54-.8-.2-.72-.2-1.18c0-.37.08-.74.22-1.1.15-.36.37-.67.65-.95s.64-.5,1.06-.66c.42-.17.89-.25,1.43-.25.61,0,1.17.1,1.68.28.51.19.95.46,1.31.8l-.47.9Z"></path><path class="cls-3" d="m89.86,43.8c.42,0,.79.06,1.12.19s.61.3.85.51c.23.21.42.46.55.73s.21.56.24.85l-1.12.23s-.03,0-.05,0h-.05c-.08,0-.15-.02-.22-.07-.06-.05-.12-.12-.15-.21-.04-.12-.1-.24-.16-.35-.07-.11-.15-.21-.24-.29-.1-.08-.21-.15-.33-.2-.13-.05-.28-.07-.44-.07-.2,0-.38.03-.53.1-.16.07-.29.16-.4.28-.11.12-.19.25-.25.41-.06.15-.09.32-.09.49,0,.14.02.28.05.41.03.13.08.27.15.4.07.13.15.27.26.41.11.14.24.29.39.45l2.73,2.84c.16-.3.28-.61.38-.95.09-.33.16-.67.19-1.01,0-.11.05-.2.11-.26.06-.07.15-.1.26-.1h1.1c0,.63-.09,1.22-.27,1.79s-.43,1.09-.75,1.57l2.16,2.23h-1.72c-.09,0-.17,0-.24-.01-.07,0-.13-.03-.2-.05-.06-.03-.12-.06-.18-.1-.06-.04-.12-.1-.18-.16l-.71-.73c-.46.37-.96.66-1.52.87-.56.21-1.16.31-1.81.31-.4,0-.79-.07-1.17-.2-.38-.14-.72-.33-1.02-.59-.3-.26-.54-.57-.72-.93-.18-.36-.27-.77-.27-1.23,0-.32.05-.62.16-.91.1-.29.25-.55.43-.8.18-.25.4-.47.66-.67.25-.2.53-.37.84-.51-.25-.36-.44-.7-.55-1.04-.12-.34-.17-.68-.17-1.01,0-.36.07-.69.2-1.01s.32-.6.57-.84c.25-.24.55-.43.91-.57.36-.14.77-.21,1.22-.21Zm-2.48,7.43c0,.26.05.5.14.7.09.21.21.39.37.53.16.15.34.26.54.33s.43.12.66.12c.42,0,.8-.07,1.14-.2.34-.13.66-.31.94-.54l-2.7-2.77c-.38.25-.66.52-.83.83-.17.31-.26.64-.26,1Z"></path><path class="cls-3" d="m110.07,49.05c0,.75-.13,1.45-.38,2.08-.25.63-.6,1.17-1.06,1.63-.46.46-1,.81-1.64,1.06-.64.25-1.35.38-2.13.38h-3.93v-10.29h3.93c.78,0,1.49.13,2.13.38.64.25,1.19.61,1.64,1.06.46.45.81.99,1.06,1.63.25.63.38,1.32.38,2.08Zm-1.96,0c0-.56-.08-1.07-.23-1.52-.15-.45-.37-.83-.65-1.14-.28-.31-.62-.55-1.02-.72-.4-.17-.85-.25-1.36-.25h-2v7.24h2c.5,0,.95-.08,1.36-.25s.74-.4,1.02-.72c.28-.31.5-.69.65-1.14.15-.45.23-.95.23-1.52Z"></path><path class="cls-3" d="m122.37,49.05c0,.75-.13,1.45-.38,2.09-.25.64-.6,1.2-1.06,1.67s-1,.84-1.64,1.1c-.64.26-1.35.4-2.13.4s-1.49-.13-2.13-.4c-.64-.26-1.19-.63-1.65-1.1-.46-.47-.81-1.03-1.06-1.67-.25-.64-.38-1.34-.38-2.09s.13-1.45.38-2.1.61-1.2,1.06-1.67c.46-.47,1.01-.84,1.65-1.1.64-.26,1.35-.4,2.13-.4s1.49.13,2.13.4,1.19.63,1.64,1.1c.46.47.81,1.02,1.06,1.66s.38,1.34.38,2.1Zm-1.96,0c0-.56-.08-1.07-.22-1.52-.15-.45-.36-.83-.64-1.14-.28-.31-.62-.55-1.02-.72-.4-.17-.85-.25-1.35-.25s-.96.08-1.36.25c-.4.17-.75.41-1.03.72-.28.31-.5.69-.65,1.14-.15.45-.23.95-.23,1.52s.08,1.07.23,1.52c.15.45.37.83.65,1.14.28.31.63.55,1.03.72s.86.25,1.36.25.95-.08,1.35-.25.74-.4,1.02-.72c.28-.31.49-.69.64-1.14.15-.45.22-.95.22-1.52Z"></path><path class="cls-3" d="m134.66,49.05c0,.75-.13,1.45-.38,2.09-.25.64-.6,1.2-1.06,1.67s-1,.84-1.64,1.1c-.64.26-1.35.4-2.13.4s-1.49-.13-2.13-.4c-.64-.26-1.19-.63-1.65-1.1-.46-.47-.81-1.03-1.06-1.67-.25-.64-.38-1.34-.38-2.09s.13-1.45.38-2.1.61-1.2,1.06-1.67c.46-.47,1.01-.84,1.65-1.1.64-.26,1.35-.4,2.13-.4s1.49.13,2.13.4,1.19.63,1.64,1.1c.46.47.81,1.02,1.06,1.66s.38,1.34.38,2.1Zm-1.96,0c0-.56-.08-1.07-.22-1.52-.15-.45-.36-.83-.64-1.14-.28-.31-.62-.55-1.02-.72-.4-.17-.85-.25-1.35-.25s-.96.08-1.36.25c-.4.17-.75.41-1.03.72-.28.31-.5.69-.65,1.14-.15.45-.23.95-.23,1.52s.08,1.07.23,1.52c.15.45.37.83.65,1.14.28.31.63.55,1.03.72s.86.25,1.36.25.95-.08,1.35-.25.74-.4,1.02-.72c.28-.31.49-.69.64-1.14.15-.45.22-.95.22-1.52Z"></path><path class="cls-3" d="m139.07,50.18v4.02h-1.91v-10.29h3.14c.7,0,1.3.07,1.8.22.5.14.91.35,1.23.61s.55.57.7.94.22.76.22,1.2c0,.35-.05.67-.15.98-.1.31-.25.59-.44.84-.19.25-.43.47-.71.66-.28.19-.6.34-.96.46.24.14.45.33.63.59l2.57,3.8h-1.72c-.17,0-.31-.03-.42-.1-.12-.07-.21-.16-.3-.28l-2.16-3.29c-.08-.12-.17-.21-.27-.26-.1-.05-.24-.08-.43-.08h-.82Zm0-1.37h1.2c.36,0,.67-.05.94-.14.27-.09.49-.21.66-.37.17-.16.3-.35.39-.57.09-.22.13-.46.13-.72,0-.52-.17-.92-.52-1.2-.34-.28-.87-.42-1.58-.42h-1.22v3.41Z"></path><path class="cls-3" d="m152.85,45.78c-.05.1-.11.18-.18.22-.07.04-.15.06-.25.06s-.2-.04-.32-.11c-.12-.07-.26-.16-.42-.25-.16-.09-.35-.17-.57-.25s-.47-.11-.76-.11c-.27,0-.5.03-.69.1-.2.06-.36.15-.5.27-.14.11-.24.25-.3.41-.07.16-.1.33-.1.52,0,.24.07.44.2.6.14.16.31.3.54.41.22.11.48.22.76.31s.57.19.87.29c.3.1.59.22.87.36.28.14.54.31.76.51s.4.46.54.76c.14.3.2.66.2,1.09,0,.46-.08.9-.24,1.3-.16.41-.39.76-.7,1.06-.31.3-.68.54-1.12.71-.44.17-.95.26-1.51.26-.33,0-.65-.03-.97-.1s-.62-.16-.91-.27c-.29-.12-.56-.26-.82-.43-.25-.17-.48-.35-.68-.55l.55-.92c.05-.07.12-.12.19-.17.07-.05.16-.07.25-.07.12,0,.25.05.38.15.14.1.3.21.49.32s.41.23.66.32c.25.1.56.15.91.15.55,0,.97-.13,1.27-.39.3-.26.45-.63.45-1.11,0-.27-.07-.49-.2-.66-.14-.17-.31-.31-.54-.43s-.48-.21-.76-.3-.57-.17-.87-.26c-.29-.09-.58-.21-.87-.34s-.54-.31-.76-.52-.4-.48-.54-.8-.2-.72-.2-1.18c0-.37.08-.74.22-1.1.15-.36.37-.67.65-.95s.64-.5,1.06-.66c.42-.17.89-.25,1.43-.25.61,0,1.17.1,1.68.28.51.19.95.46,1.31.8l-.47.9Z"></path><rect class="cls-2" x="0" y="0" width="14.41" height="14.74"></rect><rect class="cls-4" x="18.23" y="4.21" width="12.06" height="20.78"></rect><rect class="cls-1" x="34.11" y="11.02" width="7.04" height="7.37"></rect><rect class="cls-1" x="7.18" y="18.23" width="7.04" height="7.37"></rect><rect class="cls-2" x="18.18" y="29.61" width="7.04" height="7.37"></rect></g></svg> 